<svg xmlns="http://www.w3.org/2000/svg" viewBox="-16 -76 494.4 416" width="494.4" height="416" font-family="ui-sans-serif, system-ui, -apple-system, 'Segoe UI', Helvetica, Arial, sans-serif" font-size="12" role="img" data-generator="circuitmark" xmlns:c2pa="http://c2pa.org/manifest"><metadata><c2pa:manifest>AAAWgmp1bWIAAAAeanVtZGMycGEAEQAQgAAAqgA4m3EDYzJwYQAAABZcanVtYgAAAEdqdW1kYzJtYQARABCAAACqADibcQN1cm46YzJwYTo1M2IwMjgyNi03MzA2LTRmYzEtYWQzNi01NmI1N2ZlZDNjZWIAAAADl2p1bWIAAAApanVtZGMyYXMAEQAQgAAAqgA4m3EDYzJwYS5hc3NlcnRpb25zAAAAALxqdW1iAAAARGp1bWRjYm9yABEAEIAAAKoAOJtxE2MycGEuaW5ncmVkaWVudC52MwAAAAAYYzJzaNAo0drIYq+qwFMqEGghaCwAAABwY2JvcqNpZGM6Zm9ybWF0bWltYWdlL3N2Zyt4bWxqaW5zdGFuY2VJRHgseG1wOmlpZDoyODg0MTFmZC1iYjlhLTQxYjYtYTdjZC01ZmRhZmFjNjNhMmVscmVsYXRpb25zaGlwaHBhcmVudE9mAAAB4mp1bWIAAABBanVtZGNib3IAEQAQgAAAqgA4m3ETYzJwYS5hY3Rpb25zLnYyAAAAABhjMnNoYsI47xndzCK9SOJMHmtrvgAAAZljYm9yomdhY3Rpb25zgqJmYWN0aW9ua2MycGEub3BlbmVkanBhcmFtZXRlcnOha2luZ3JlZGllbnRzgaJjdXJseC1zZWxmI2p1bWJmPWMycGEuYXNzZXJ0aW9ucy9jMnBhLmluZ3JlZGllbnQudjNkaGFzaFggw0pgsiQ2yxsuZooC2sEqasS+anHuHVqLyiv1etqybPmkZmFjdGlvbngdY29tLmFudGhyb3BpYy5jbGF1ZGUucHJvdmlkZWRqcGFyYW1ldGVyc6F4H2NvbS5hbnRocm9waWMub3JpZ2luLWNvbmZpZGVuY2VndW5rbm93bmtkZXNjcmlwdGlvbnhmQ2xhdWRlIHByb3ZpZGVkIHRoaXMgZmlsZSBhdCB0aGUgcmVxdWVzdCBvZiBhIHVzZXIgYW5kIG1heSBoYXZlIGNyZWF0ZWQgb3IgbW9kaWZpZWQgdGhlIGZpbGUgY29udGVudHMubXNvZnR3YXJlQWdlbnShZG5hbWVmQ2xhdWRlcmFsbEFjdGlvbnNJbmNsdWRlZPUAAADIanVtYgAAAEBqdW1kY2JvcgARABCAAACqADibcRNjMnBhLmhhc2guZGF0YQAAAAAYYzJzaLaJ250czfS96yyNJgUsjukAAACAY2JvcqVjYWxnZnNoYTI1NmNwYWRMAAAAAAAAAAAAAAAAZGhhc2hYIA1wQSbGayGqgOO3PfBlFAYjyj7nbHVR2/6WJyTxgAlsZG5hbWVuanVtYmYgbWFuaWZlc3RqZXhjbHVzaW9uc4GiZXN0YXJ0GQE1Zmxlbmd0aBkeBAAAAj5qdW1iAAAAJ2p1bWRjMmNsABEAEIAAAKoAOJtxA2MycGEuY2xhaW0udjIAAAACD2Nib3KlY2FsZ2ZzaGEyNTZpc2lnbmF0dXJleE1zZWxmI2p1bWJmPS9jMnBhL3VybjpjMnBhOjUzYjAyODI2LTczMDYtNGZjMS1hZDM2LTU2YjU3ZmVkM2NlYi9jMnBhLnNpZ25hdHVyZWppbnN0YW5jZUlEeCx4bXA6aWlkOjI2MTIxYzJlLWVhODItNGM1Ni05OTU1LTY3NDMyZDdiOTkwM3JjcmVhdGVkX2Fzc2VydGlvbnODomN1cmx4LXNlbGYjanVtYmY9YzJwYS5hc3NlcnRpb25zL2MycGEuaW5ncmVkaWVudC52M2RoYXNoWCDDSmCyJDbLGy5migLawSpqxL5qce4dWovKK/V62rJs+aJjdXJseCpzZWxmI2p1bWJmPWMycGEuYXNzZXJ0aW9ucy9jMnBhLmFjdGlvbnMudjJkaGFzaFggYv8oahjud3V2gM/vYXnsz6KBr5q10AzI/pvdTJDI/e6iY3VybHgpc2VsZiNqdW1iZj1jMnBhLmFzc2VydGlvbnMvYzJwYS5oYXNoLmRhdGFkaGFzaFgguUFk2xCy5IolR8l6YVmlZvFZQRMeoBivYGQnVc0DbB10Y2xhaW1fZ2VuZXJhdG9yX2luZm+jZG5hbWVvQW50aHJvcGljIEZpbGVzZ3ZlcnNpb25lMS4wLjBrc3BlY1ZlcnNpb25lMi40LjAAABA4anVtYgAAAChqdW1kYzJjcwARABCAAACqADibcQNjMnBhLnNpZ25hdHVyZQAAABAIY2JvctKEWQISogEmGCFZAgowggIGMIIBjaADAgECAhRA5aAK7sI50L64g/oGQgU9Z1UTADAKBggqhkjOPQQDAzBJMRcwFQYDVQQKEw5BbnRocm9waWMsIFBCQzEuMCwGA1UEAxMlQW50aHJvcGljIENvbnRlbnQgQ3JlZGVudGlhbHMgUm9vdCBDQTAeFw0yNjA4MDcxODQzNTZaFw0yODA4MDYxOTQzNTZaMEQxFzAVBgNVBAoTDkFudGhyb3BpYywgUEJDMSkwJwYDVQQDEyBBbnRocm9waWMgQ2xhdWRlIENvbnRlbnQgU2lnbmluZzBZMBMGByqGSM49AgEGCCqGSM49AwEHA0IABJh6CmvLUBgFFNU0vUKlOVtE6djd17L5SuwX0LemFisBM3dkd/3cyjxFA3Qo5S46fX0/ihY0VZ7mfb9KF703t5OjWDBWMA4GA1UdDwEB/wQEAwIHgDAVBgNVHSUEDjAMBgorBgEEAYPoXgIBMAwGA1UdEwEB/wQCMAAwHwYDVR0jBBgwFoAUzlHiBIFOZFsj+OPEz5o+nMHXXMIwCgYIKoZIzj0EAwMDZwAwZAIwMXMdFJ4BetLLVY7ORuE9noqbbAZOZn/aArXyTwFAZfKrPzxF2vPoJNf1+UCdg1XGAjBwX1zd9WGqYkqmL5SFqw1QySjr1zJfpJM9+1rdDwSPLMOPOjKuiXjoU/pUUeG9RwmhY3BhZFkNngAAAAAAAAAAAAAAAAAAAAAAAAAAAAAAAAAAAAAAAAAAAAAAAAAAAAAAAAAAAAAAAAAAAAAAAAAAAAAAAAAAAAAAAAAAAAAAAAAAAAAAAAAAAAAAAAAAAAAAAAAAAAAAAAAAAAAAAAAAAAAAAAAAAAAAAAAAAAAAAAAAAAAAAAAAAAAAAAAAAAAAAAAAAAAAAAAAAAAAAAAAAAAAAAAAAAAAAAAAAAAAAAAAAAAAAAAAAAAAAAAAAAAAAAAAAAAAAAAAAAAAAAAAAAAAAAAAAAAAAAAAAAAAAAAAAAAAAAAAAAAAAAAAAAAAAAAAAAAAAAAAAAAAAAAAAAAAAAAAAAAAAAAAAAAAAAAAAAAAAAAAAAAAAAAAAAAAAAAAAAAAAAAAAAAAAAAAAAAAAAAAAAAAAAAAAAAAAAAAAAAAAAAAAAAAAAAAAAAAAAAAAAAAAAAAAAAAAAAAAAAAAAAAAAAAAAAAAAAAAAAAAAAAAAAAAAAAAAAAAAAAAAAAAAAAAAAAAAAAAAAAAAAAAAAAAAAAAAAAAAAAAAAAAAAAAAAAAAAAAAAAAAAAAAAAAAAAAAAAAAAAAAAAAAAAAAAAAAAAAAAAAAAAAAAAAAAAAAAAAAAAAAAAAAAAAAAAAAAAAAAAAAAAAAAAAAAAAAAAAAAAAAAAAAAAAAAAAAAAAAAAAAAAAAAAAAAAAAAAAAAAAAAAAAAAAAAAAAAAAAAAAAAAAAAAAAAAAAAAAAAAAAAAAAAAAAAAAAAAAAAAAAAAAAAAAAAAAAAAAAAAAAAAAAAAAAAAAAAAAAAAAAAAAAAAAAAAAAAAAAAAAAAAAAAAAAAAAAAAAAAAAAAAAAAAAAAAAAAAAAAAAAAAAAAAAAAAAAAAAAAAAAAAAAAAAAAAAAAAAAAAAAAAAAAAAAAAAAAAAAAAAAAAAAAAAAAAAAAAAAAAAAAAAAAAAAAAAAAAAAAAAAAAAAAAAAAAAAAAAAAAAAAAAAAAAAAAAAAAAAAAAAAAAAAAAAAAAAAAAAAAAAAAAAAAAAAAAAAAAAAAAAAAAAAAAAAAAAAAAAAAAAAAAAAAAAAAAAAAAAAAAAAAAAAAAAAAAAAAAAAAAAAAAAAAAAAAAAAAAAAAAAAAAAAAAAAAAAAAAAAAAAAAAAAAAAAAAAAAAAAAAAAAAAAAAAAAAAAAAAAAAAAAAAAAAAAAAAAAAAAAAAAAAAAAAAAAAAAAAAAAAAAAAAAAAAAAAAAAAAAAAAAAAAAAAAAAAAAAAAAAAAAAAAAAAAAAAAAAAAAAAAAAAAAAAAAAAAAAAAAAAAAAAAAAAAAAAAAAAAAAAAAAAAAAAAAAAAAAAAAAAAAAAAAAAAAAAAAAAAAAAAAAAAAAAAAAAAAAAAAAAAAAAAAAAAAAAAAAAAAAAAAAAAAAAAAAAAAAAAAAAAAAAAAAAAAAAAAAAAAAAAAAAAAAAAAAAAAAAAAAAAAAAAAAAAAAAAAAAAAAAAAAAAAAAAAAAAAAAAAAAAAAAAAAAAAAAAAAAAAAAAAAAAAAAAAAAAAAAAAAAAAAAAAAAAAAAAAAAAAAAAAAAAAAAAAAAAAAAAAAAAAAAAAAAAAAAAAAAAAAAAAAAAAAAAAAAAAAAAAAAAAAAAAAAAAAAAAAAAAAAAAAAAAAAAAAAAAAAAAAAAAAAAAAAAAAAAAAAAAAAAAAAAAAAAAAAAAAAAAAAAAAAAAAAAAAAAAAAAAAAAAAAAAAAAAAAAAAAAAAAAAAAAAAAAAAAAAAAAAAAAAAAAAAAAAAAAAAAAAAAAAAAAAAAAAAAAAAAAAAAAAAAAAAAAAAAAAAAAAAAAAAAAAAAAAAAAAAAAAAAAAAAAAAAAAAAAAAAAAAAAAAAAAAAAAAAAAAAAAAAAAAAAAAAAAAAAAAAAAAAAAAAAAAAAAAAAAAAAAAAAAAAAAAAAAAAAAAAAAAAAAAAAAAAAAAAAAAAAAAAAAAAAAAAAAAAAAAAAAAAAAAAAAAAAAAAAAAAAAAAAAAAAAAAAAAAAAAAAAAAAAAAAAAAAAAAAAAAAAAAAAAAAAAAAAAAAAAAAAAAAAAAAAAAAAAAAAAAAAAAAAAAAAAAAAAAAAAAAAAAAAAAAAAAAAAAAAAAAAAAAAAAAAAAAAAAAAAAAAAAAAAAAAAAAAAAAAAAAAAAAAAAAAAAAAAAAAAAAAAAAAAAAAAAAAAAAAAAAAAAAAAAAAAAAAAAAAAAAAAAAAAAAAAAAAAAAAAAAAAAAAAAAAAAAAAAAAAAAAAAAAAAAAAAAAAAAAAAAAAAAAAAAAAAAAAAAAAAAAAAAAAAAAAAAAAAAAAAAAAAAAAAAAAAAAAAAAAAAAAAAAAAAAAAAAAAAAAAAAAAAAAAAAAAAAAAAAAAAAAAAAAAAAAAAAAAAAAAAAAAAAAAAAAAAAAAAAAAAAAAAAAAAAAAAAAAAAAAAAAAAAAAAAAAAAAAAAAAAAAAAAAAAAAAAAAAAAAAAAAAAAAAAAAAAAAAAAAAAAAAAAAAAAAAAAAAAAAAAAAAAAAAAAAAAAAAAAAAAAAAAAAAAAAAAAAAAAAAAAAAAAAAAAAAAAAAAAAAAAAAAAAAAAAAAAAAAAAAAAAAAAAAAAAAAAAAAAAAAAAAAAAAAAAAAAAAAAAAAAAAAAAAAAAAAAAAAAAAAAAAAAAAAAAAAAAAAAAAAAAAAAAAAAAAAAAAAAAAAAAAAAAAAAAAAAAAAAAAAAAAAAAAAAAAAAAAAAAAAAAAAAAAAAAAAAAAAAAAAAAAAAAAAAAAAAAAAAAAAAAAAAAAAAAAAAAAAAAAAAAAAAAAAAAAAAAAAAAAAAAAAAAAAAAAAAAAAAAAAAAAAAAAAAAAAAAAAAAAAAAAAAAAAAAAAAAAAAAAAAAAAAAAAAAAAAAAAAAAAAAAAAAAAAAAAAAAAAAAAAAAAAAAAAAAAAAAAAAAAAAAAAAAAAAAAAAAAAAAAAAAAAAAAAAAAAAAAAAAAAAAAAAAAAAAAAAAAAAAAAAAAAAAAAAAAAAAAAAAAAAAAAAAAAAAAAAAAAAAAAAAAAAAAAAAAAAAAAAAAAAAAAAAAAAAAAAAAAAAAAAAAAAAAAAAAAAAAAAAAAAAAAAAAAAAAAAAAAAAAAAAAAAAAAAAAAAAAAAAAAAAAAAAAAAAAAAAAAAAAAAAAAAAAAAAAAAAAAAAAAAAAAAAAAAAAAAAAAAAAAAAAAAAAAAAAAAAAAAAAAAAAAAAAAAAAAAAAAAAAAAAAAAAAAAAAAAAAAAAAAAAAAAAAAAAAAAAAAAAAAAAAAAAAAAAAAAAAAAAAAAAAAAAAAAAAAAAAAAAAAAAAAAAAAAAAAAAAAAAAAAAAAAAAAAAAAAAAAAAAAAAAAAAAAAAAAAAAAAAAAAAAAAAAAAAAAAAAAAAAAAAAAAAAAAAAAAAAAAAAAAAAAAAAAAAAAAAAAAAAAAAAAAAAAAAAAAAAAAAAAAAAAAAAAAAAAAAAAAAAAAAAAAAAAAAAAAAAAAAAAAAAAAAAAAAAAAAAAAAAAAAAAAAAAAAAAAAAAAAAAAAAAAAAAAAAAAAAAAAAAAAAAAAAAAAAAAAAAAAAAAAAAAAAAAAAAAAAAAAAAAAAAAAAAAAAAAAAAAAAAAAAAAAAAAAAAAAAAAAAAAAAAAAAAAAAAAAAAAAAAAAAAAAAAAAAAAAAAAAAAAAAAAAAAAAAAAAAAAAAAAAAAAAAAAAAAAAAAAAAAAAAAAAAAAAAAAAAAAAAAAAAAAAAAAAAAAAAAAAAAAAAAAAAAAAAAAAAAAAAAAAAAAAAAAAAAAAAAAAAAAAAAAAAAAAAAAAAAAAAAAAAAAAAAAAAAAAAAAAAAAAAAAAAAAAAAAAAAAAAAAAAAAAAAAAAAAAAAAAAAAAAAAAAAAAAAAAAAAAAAAAAAAAAAAAAAAAAAAAAAAAAAAAAAAAAAAAAAAAAAAAAAAAAAAAAAAAAAAAAAAAAAAAAAAAAAAAAAAAAAAAAAAAAAAAAAAAAAAAAAAAAAAAAAAAAAAAAAAAAAAAAAAAAAAAAAAAAAAAAAAAAAAAAAAAAAAAAAAAAAAAAAAAAAAAAAAAAAAAAAAAAAAAAAAAAAAAAAAAAAAAAAAAAAAAAAAAAAAAAAAAAAAAAAAAAAAAAAAAAAAAAAAAAAAAAAAAAAAAAAAAAAAAAAAAAAAAAAAAAAAAAAAAAAAAAAAAAAAAAAAAAAAAAAAAAAAAAAAAAAAAAAAAAAAAAAAAAAAAAAAAAAAAAAAAAAAAAAAAAAAAAAAAAAAAAAAAAAAAAAAAAAAAAAAAAAAAAAAAAAAAAAAAAAAAAAAAAAAAAAAAAAAAAAAAAAAAAAAAAAAAAAAAAAAAAAAAAAAAAAAAAAAAAAAAAAAAAAAAAAAAAAAAAAAAAAAAAAAAAAAAAAAAAAAAAAAAAAAAAAAAAAAAAAAAAAAAAAAAAAAAAAAAAAAAAAAAAAAAAAAAAAAAAAAAAAAAAAAAAAAAAAAAAAAAAAAAAAAAAAAAAAAAAAAAAAAAAAAAAAAAAAAAAAAAAAAAAAAAAAAAAAAAAAAAAAAAAAAAAAAAAAAAAAAAAAAAAAAAAAAAAAAAAAAAAAAAAAAAAAAAAAAAAAAAAAAAAAAAAAAAAAAAAAAAAAAAAAAAAAAAAAAAPZYQMOtlBu/m6yB3wnxZIz74791lC9JN6EktbnCC49tDgNsldWrbgr4J49tLFWLdDKtEYmZBTzDHFeEyIvryMv9yLM=</c2pa:manifest></metadata>
<title>Symbols</title>
<rect x="-16" y="-76" width="494.4" height="416" fill="#ffffff"/>
<g fill="none" stroke="#1a1a1a" stroke-width="2" stroke-linecap="round" stroke-linejoin="round">
<path class="wire" d="M0 0 L20 0 M80 0 L100 0 M120 0 L140 0 M200 0 L220 0 M240 0 L260 0 M320 0 L340 0 M360 0 L380 0 M440 0 L460 0 M0 60 L20 60 M80 60 L100 60 M120 60 L140 60 M200 60 L220 60 M240 60 L260 60 M320 60 L340 60 M360 60 L380 60 M440 60 L460 60 M0 120 L20 120 M80 120 L100 120 M120 120 L140 120 M200 120 L220 120 M240 120 L260 120 M320 120 L340 120 M360 120 L380 120 M440 120 L460 120 M0 180 L20 180 M80 180 L100 180 M120 180 L140 180 M200 180 L220 180 M240 180 L260 180 M320 180 L340 180 M360 180 L380 180 M440 180 L460 180 M0 240 L20 240 M80 240 L100 240 M120 240 L140 240 M200 240 L220 240 M240 240 L260 240 M320 250 L340 250 M360 240 L380 240 M0 300 L20 300 M120 300 L140 300 M140 300 L160 300 M240 300 L260 300 M320 300 L340 300"/>
<g class="element resistor" transform="translate(20 0)">
<path d="M0 0 H15 M45 0 H60"/>
<path d="M15 0 L17.5 -6 L22.5 6 L27.5 -6 L32.5 6 L37.5 -6 L42.5 6 L45 0"/>
</g>
<g class="element capacitor" transform="translate(140 0)">
<path d="M0 0 H27 M33 0 H60"/>
<path d="M27 -10 V10 M33 -10 V10"/>
</g>
<g class="element inductor" transform="translate(260 0)">
<path d="M0 0 H15 M45 0 H60"/>
<path d="M15 0 a3.75 3.75 0 0 1 7.5 0 a3.75 3.75 0 0 1 7.5 0 a3.75 3.75 0 0 1 7.5 0 a3.75 3.75 0 0 1 7.5 0"/>
</g>
<g class="element diode" transform="translate(380 0)">
<path d="M0 0 H23 M37 0 H60"/>
<path d="M23 -7 L37 0 L23 7 Z" fill="#1a1a1a" stroke="none"/>
<path d="M37 -7 V7"/>
</g>
<g class="element led" transform="translate(20 60)">
<path d="M0 0 H23 M37 0 H60"/>
<path d="M23 -7 L37 0 L23 7 Z" fill="#1a1a1a" stroke="none"/>
<path d="M37 -7 V7"/>
<path d="M27 -9 l5 -7"/>
<path d="M32 -16 l-1 3.5 l4 0 Z" fill="#1a1a1a" stroke="none"/>
<path d="M34 -9 l5 -7"/>
<path d="M39 -16 l-1 3.5 l4 0 Z" fill="#1a1a1a" stroke="none"/>
</g>
<g class="element zener" transform="translate(140 60)">
<path d="M0 0 H23 M37 0 H60"/>
<path d="M23 -7 L37 0 L23 7 Z" fill="#1a1a1a" stroke="none"/>
<path d="M37 -7 V7 M37 -7 l-3 0 M37 7 l3 0"/>
</g>
<g class="element schottky" transform="translate(260 60)">
<path d="M0 0 H23 M37 0 H60"/>
<path d="M23 -7 L37 0 L23 7 Z" fill="#1a1a1a" stroke="none"/>
<path d="M37 -7 V7 M37 -7 l3 0 l0 2 M37 7 l-3 0 l0 -2"/>
</g>
<g class="element battery" transform="translate(380 60)">
<path d="M0 0 H21 M39 0 H60"/>
<path d="M21 -5 V5 M27 -10 V10 M33 -5 V5 M39 -10 V10"/>
</g>
<g class="element dc" transform="translate(20 120)">
<path d="M0 0 H18 M42 0 H60"/>
<circle cx="30" cy="0" r="12"/>
<path d="M35 -2.5 V2.5 M32.5 0 H37.5 M22.5 0 H27.5"/>
</g>
<g class="element ac" transform="translate(140 120)">
<path d="M0 0 H18 M42 0 H60"/>
<circle cx="30" cy="0" r="12"/>
<path d="M23 0 q3.5 -8 7 0 t7 0"/>
</g>
<g class="element isource" transform="translate(260 120)">
<path d="M0 0 H18 M42 0 H60"/>
<circle cx="30" cy="0" r="12"/>
<path d="M23 0 H34"/>
<path d="M38 0 l-5 -3.5 l0 7 Z" fill="#1a1a1a" stroke="none"/>
</g>
<g class="element switch" transform="translate(380 120)">
<path d="M0 0 H18 M42 0 H60"/>
<circle cx="18" cy="0" r="2"/>
<circle cx="42" cy="0" r="2"/>
<path d="M19.5 -1 L41 -10"/>
</g>
<g class="element fuse" transform="translate(20 180)">
<path d="M0 0 H15 M45 0 H60"/>
<path d="M18 -5 H42 V5 H18 Z M15 0 H45"/>
</g>
<g class="element lamp" transform="translate(140 180)">
<path d="M0 0 H20 M40 0 H60"/>
<circle cx="30" cy="0" r="10"/>
<path d="M22.929 -7.071 L37.071 7.071 M22.929 7.071 L37.071 -7.071"/>
</g>
<g class="element motor" transform="translate(260 180)">
<path d="M0 0 H18 M42 0 H60"/>
<circle cx="30" cy="0" r="12"/>
</g>
<g class="element speaker" transform="translate(380 180)">
<path d="M0 0 H22 M38 0 H60"/>
<path d="M22 -6 H32 V6 H22 Z M32 -6 L40 -14 V14 L32 6"/>
</g>
<g class="element npn" transform="translate(20 240)">
<path d="M0 0 H16 L24 -8 M36 -8 L44 0 H60"/>
<path d="M22 -8 H38"/>
<path d="M30 -8 V-20"/>
<path d="M17 0 l6.5 -1.5 l-2.5 -4.5 Z" fill="#1a1a1a" stroke="none"/>
</g>
<g class="element pnp" transform="translate(140 240)">
<path d="M0 0 H16 L24 -8 M36 -8 L44 0 H60"/>
<path d="M22 -8 H38"/>
<path d="M30 -8 V-20"/>
<path d="M23.5 -8 l-6.5 1.5 l2.5 4.5 Z" fill="#1a1a1a" stroke="none"/>
</g>
<g class="element opamp" transform="translate(260 240)">
<path d="M15 -10 L45 10 L15 30 Z"/>
<path d="M0 0 H15 M0 20 H15 M45 10 H60"/>
<path d="M18 0 h5 M18 20 h5 M20.5 17.5 v5"/>
</g>
<g class="element terminal" transform="translate(380 240)">
<path d="M0 0 H16"/>
<circle cx="20" cy="0" r="4"/>
</g>
<g class="element ground" transform="translate(20 300)">
<path d="M0 0 H10 M10 -10 V10 M14 -6 V6 M18 -2 V2"/>
</g>
<g class="element dot" transform="translate(140 300)">
<circle cx="0" cy="0" r="3" fill="#1a1a1a" stroke="none"/>
</g>
<g class="element box" transform="translate(260 300)">
<path d="M0 0 H15 M45 0 H60"/>
<path d="M15 -10 H45 V10 H15 Z"/>
</g>
<circle class="junction" cx="140" cy="300" r="3" fill="#1a1a1a" stroke="none"/>
</g>
<text class="title" x="0" y="-46" text-anchor="start" dominant-baseline="alphabetic" fill="#1a1a1a" font-weight="600" font-size="14">Symbols</text>
<text class="value" x="50" y="-20" text-anchor="middle" dominant-baseline="alphabetic" fill="#4a4a4a">resistor</text>
<text class="value" x="170" y="-20" text-anchor="middle" dominant-baseline="alphabetic" fill="#4a4a4a">capacitor</text>
<text class="value" x="290" y="-20" text-anchor="middle" dominant-baseline="alphabetic" fill="#4a4a4a">inductor</text>
<text class="value" x="410" y="-20" text-anchor="middle" dominant-baseline="alphabetic" fill="#4a4a4a">diode</text>
<text class="value" x="50" y="37" text-anchor="middle" dominant-baseline="alphabetic" fill="#4a4a4a">led</text>
<text class="value" x="170" y="40" text-anchor="middle" dominant-baseline="alphabetic" fill="#4a4a4a">zener</text>
<text class="value" x="290" y="40" text-anchor="middle" dominant-baseline="alphabetic" fill="#4a4a4a">schottky</text>
<text class="value" x="410" y="40" text-anchor="middle" dominant-baseline="alphabetic" fill="#4a4a4a">battery</text>
<text class="value" x="50" y="100" text-anchor="middle" dominant-baseline="alphabetic" fill="#4a4a4a">dc</text>
<text class="value" x="170" y="100" text-anchor="middle" dominant-baseline="alphabetic" fill="#4a4a4a">ac</text>
<text class="value" x="290" y="100" text-anchor="middle" dominant-baseline="alphabetic" fill="#4a4a4a">isource</text>
<text class="value" x="410" y="100" text-anchor="middle" dominant-baseline="alphabetic" fill="#4a4a4a">switch</text>
<text class="value" x="50" y="160" text-anchor="middle" dominant-baseline="alphabetic" fill="#4a4a4a">fuse</text>
<text class="value" x="170" y="160" text-anchor="middle" dominant-baseline="alphabetic" fill="#4a4a4a">lamp</text>
<text class="value" x="290" y="160" text-anchor="middle" dominant-baseline="alphabetic" fill="#4a4a4a">motor</text>
<text class="value" x="410" y="160" text-anchor="middle" dominant-baseline="alphabetic" fill="#4a4a4a">speaker</text>
<text class="value" x="50" y="215" text-anchor="middle" dominant-baseline="alphabetic" fill="#4a4a4a">npn</text>
<text class="value" x="170" y="215" text-anchor="middle" dominant-baseline="alphabetic" fill="#4a4a4a">pnp</text>
<text class="value" x="290" y="220" text-anchor="middle" dominant-baseline="alphabetic" fill="#4a4a4a">opamp</text>
<text class="id" x="408" y="240" text-anchor="start" dominant-baseline="middle" fill="#1a1a1a" font-weight="600">terminal</text>
<text class="value" x="48" y="300" text-anchor="start" dominant-baseline="middle" fill="#4a4a4a">ground</text>
<text class="value" x="140" y="292" text-anchor="middle" dominant-baseline="alphabetic" fill="#4a4a4a">dot</text>
<text class="value" x="290" y="300" text-anchor="middle" dominant-baseline="middle" fill="#4a4a4a">box</text>
<text class="symbol" x="290" y="180" text-anchor="middle" dominant-baseline="central" fill="#1a1a1a">M</text>
</svg>
